<svg id="Layer_1" data-name="Layer 1" xmlns="http://www.w3.org/2000/svg" viewBox="0 0 661 656"><defs><style>.cls-1{fill:#4e4574;}.cls-2{fill:#f17264;}.cls-3{fill:#fff3f0;}.cls-4{fill:#1c1a36;}.cls-5{fill:#ffede9;}</style></defs><path class="cls-1" d="M153.08,625.17c-19.66,0-39.33-.11-59,.1-3.43,0-4.1-.67-4.1-4.1q.18-165.19.1-330.4,0-158.7-.1-317.4c0-3.42.67-4.1,4.09-4.09q326.41.15,652.82,0c3.42,0,4.09.66,4.09,4.09q-.15,323.9,0,647.8c0,3.42-.66,4.14-4.09,4.1-19.33-.21-38.66-.1-58-.1.09-.82.21-1.65.25-2.48a836.6,836.6,0,0,0-1.52-100.77c-1.7-23.4-4.5-46.68-10.82-69.38-4.62-16.58-10.94-32.16-25.76-42.64-38.76-27.42-81.68-44.86-128.2-53.75-3.76-.72-7.26-1.48-8.6,3.47-5.53-1-11-2.3-16.6-3-3.25-.41-4.53-1.6-4.62-4.92-.16-6.13-.55-12.26-1.18-18.35-1-9.7-.85-19.5-2.82-29.1.46-1.23-.31-2.63.63-3.83,9.66-12.48,16.2-26.65,22.08-41.16.69-1.69,1.39-2.76,3.44-2.95,8.45-.79,14.4-5.76,19.14-12.27a70.09,70.09,0,0,0,13.32-37.1c.76-11.1-3-20.64-12.79-27.05,2.94-10,3.26-20.26,3.26-30.61,0-12.56-2-24.83-4.32-37.08-4.44-23.71-16-43.42-35.23-57.94C460,25.11,417.07,20,371.29,32.76c-21.83,6.1-38.93,19.6-55.11,34.82a65.83,65.83,0,0,0-19.57,34.6,233.8,233.8,0,0,0-3.55,83.21c-3.41,4.24-5.79,9-6.13,14.45-1.18,18.86,4.75,35.32,17.4,49.27a20.54,20.54,0,0,0,13.43,7c3.13.26,4.19,1.75,5.17,4.26A187.47,187.47,0,0,0,350.3,308.8c1.06,1.34,2,2.65,1.91,4.43-1.74,13.31-3.69,26.59-5.1,39.93-.48,4.43-2.08,5.5-6.24,4.92-4.74-.65-9.58-.63-14.37-.9-.94-2.44-2.86-1.75-4.64-1.44-46.09,8-88.39,25.37-127.23,51.35-12.82,8.57-21.35,20.25-26.2,34.84a237.35,237.35,0,0,0-8.34,32.85c-5.33,29.59-7.15,59.5-7.79,89.47C151.87,584.55,151.35,604.88,153.08,625.17Z" transform="translate(-90 30.72)"/><path class="cls-2" d="M153.08,625.17c-1.73-20.29-1.21-40.62-.78-60.92.64-30,2.46-59.88,7.79-89.47a237.35,237.35,0,0,1,8.34-32.85c4.85-14.59,13.38-26.27,26.2-34.84,38.84-26,81.14-43.35,127.23-51.35,1.78-.31,3.7-1,4.64,1.44,10.44,24,25.31,44.5,47.27,59.16,18.88,12.61,39.73,18,62.19,13.19,39.25-8.35,62-35.69,78.31-69.91,1.34-4.95,4.84-4.19,8.6-3.47,46.52,8.89,89.44,26.33,128.2,53.75,14.82,10.48,21.14,26.06,25.76,42.64,6.32,22.7,9.12,46,10.82,69.38a836.6,836.6,0,0,1,1.52,100.77c0,.83-.16,1.66-.25,2.48Z" transform="translate(-90 30.72)"/><path class="cls-3" d="M534.87,179.89c9.78,6.41,13.55,16,12.79,27.05A70.09,70.09,0,0,1,534.34,244c-4.74,6.51-10.69,11.48-19.14,12.27-2.05.19-2.75,1.26-3.44,2.95-5.88,14.51-12.42,28.68-22.08,41.16-.94,1.2-.17,2.6-.63,3.83-1.72.07-2.48,1.33-3.43,2.53-5.17,6.49-10.25,13.28-17.29,17.76-19.87,12.66-41.64,17.43-65,13.76-14.19-2.24-27.81-6.17-39.55-15.1-4.08-3.1-6.58-8-11.57-10,.05-1.78-.85-3.09-1.91-4.43a187.47,187.47,0,0,1-27.37-48.41c-1-2.51-2-4-5.17-4.26a20.54,20.54,0,0,1-13.43-7c-12.65-14-18.58-30.41-17.4-49.27.34-5.45,2.72-10.21,6.13-14.45,5.41,4.65,10.11,10.1,16.08,14.12,4.93,3.32,6.09,3,7.16-2.74,1.47-7.89,1.11-15.9,1.19-23.88.12-11.32-2.18-22.52-1.46-33.87,1.36-21.15,14.53-31.89,35.44-29,7.64,1,14.87,3.37,22.06,6,16.62,6,33.66,7.24,51.11,4.78,15.39-2.17,29.94-7.43,44.86-11.35,24.64-6.48,45.77,13,41.68,38.13A92.92,92.92,0,0,0,510,171.89a47.86,47.86,0,0,0,5.91,19.39c.58,1,1.09,3,2.81,1.6C524.08,188.52,530.72,185.74,534.87,179.89Z" transform="translate(-90 30.72)"/><path class="cls-4" d="M534.87,179.89c-4.15,5.85-10.79,8.63-16.16,13-1.72,1.4-2.23-.59-2.81-1.6A47.86,47.86,0,0,1,510,171.89a92.92,92.92,0,0,1,1.19-24.35c4.09-25.18-17-44.61-41.68-38.13-14.92,3.92-29.47,9.18-44.86,11.35-17.45,2.46-34.49,1.24-51.11-4.78-7.19-2.6-14.42-4.92-22.06-6-20.91-2.88-34.08,7.86-35.44,29-.72,11.35,1.58,22.55,1.46,33.87-.08,8,.28,16-1.19,23.88-1.07,5.71-2.23,6.06-7.16,2.74-6-4-10.67-9.47-16.08-14.12a233.8,233.8,0,0,1,3.55-83.21,65.83,65.83,0,0,1,19.57-34.6c16.18-15.22,33.28-28.72,55.11-34.82C417.07,20,460,25.11,498.58,54.26c19.21,14.52,30.79,34.23,35.23,57.94,2.3,12.25,4.33,24.52,4.32,37.08C538.13,159.63,537.81,169.88,534.87,179.89Z" transform="translate(-90 30.72)"/><path class="cls-5" d="M352.21,313.23c5,2,7.49,6.87,11.57,10,11.74,8.93,25.36,12.86,39.55,15.1,23.36,3.67,45.13-1.1,65-13.76,7-4.48,12.12-11.27,17.29-17.76.95-1.2,1.71-2.46,3.43-2.53,2,9.6,1.82,19.4,2.82,29.1.63,6.09,1,12.22,1.18,18.35.09,3.32,1.37,4.51,4.62,4.92,5.58.7,11.07,2,16.6,3-16.36,34.22-39.06,61.56-78.31,69.91-22.46,4.78-43.31-.58-62.19-13.19-22-14.66-36.83-35.19-47.27-59.16,4.79.27,9.63.25,14.37.9,4.16.58,5.76-.49,6.24-4.92C348.52,339.82,350.47,326.54,352.21,313.23Z" transform="translate(-90 30.72)"/></svg>