<svg id="Layer_1" data-name="Layer 1" xmlns="http://www.w3.org/2000/svg" viewBox="0 0 256.05 272.75"><defs><style>.cls-1{fill:#fff;}.cls-2{fill:#4e4574;}.cls-3{fill:#b2b2b2;}.cls-4{fill:#9c6940;}.cls-5{fill:#c9ad97;}.cls-6{fill:#431e07;}</style></defs><path class="cls-1" d="M332,443.9c-7.3.7-14.2,3.4-21.2,5.2-6.8,1.6-13.4,3.8-20.2,5.4-2.8.7-3.6,1.9-3.8,4.7-1.8,23-3.8,46.1-5.8,69.1-.1,1.3.6,3.5-1.5,3.6-2.5.2-2-2.3-2.2-3.7-2.7-20.6-5.5-41.2-7.9-61.8-.6-5.4-1.9-9.6-7.5-11.4a12.59,12.59,0,0,1-2.8-1.9,25.4,25.4,0,0,1-13.9-15c-10.9-29.8-19-60.5-28.8-90.7a6.78,6.78,0,0,0-5.2-5.1c-13-4-26.1-8-38.3-14.2-3-1.5-5.2-3.5-5.8-7,3.6-2,7-4.4,10.9-5.9,17.8-.1,35.6-.1,53.5-.2,1,0,2-.1,2.7.9,1.2,2.1-.7,2.9-1.7,4.1-1.4,1.7-.6,2.3,1.2,2.4a6.44,6.44,0,0,0,2.4-.5c12.4-5.3,25.3-1.5,38-1.9.1,2.9-3.6,3.3-3.8,6-3.1,2.8-6.3,5.3-10.9,4.5-1.2-2.4,1.1-2.8,2.3-3.5a66.18,66.18,0,0,0,6.1-3.7c-7,.1-13.4,2.3-19.7,4.8-1.7.7-2,1.3-.6,2.5-3.1,2.6.9,4.3.9,6.5,3.7,8.5,10.5,14.7,16.4,21.6,14.6,16.8,34,22.9,55.3,25.4a480.55,480.55,0,0,0,58.8,3.1,11,11,0,0,0,6.8-2.3c10.7-8,21.4-15.8,32.1-23.7,1.3-1,2.4-2.3,4.2-2.5.8,1.4.3,2.9.3,4.4-2,15.5-10.5,25.5-25.1,30.6-2.7.9-6.8-.4-7.8,1.8-1.5,3.5-.8,7.7-.2,11.7.4,13.1,1,26.2,1.2,39.4.1,3.5,1.2,4.9,4.6,5.6,9.5,1.9,9.6,2.1,8.5,11.7-2.3,20.8-4.8,41.6-7.2,62.4a1.93,1.93,0,0,1-2.8,0c-.7-18.5-1.4-37.1-2.2-55.6-.1-1.8,1-5-1.2-5.2-3.1-.3-6.8-2.6-9.6.9-9-2.9-18.1-5.8-24.7-13.3-2.3-2.6-4.8-5.2-6.4-8.3s-3.7-3.6-6.9-2.7C338.9,442.9,335.6,444.3,332,443.9Z" transform="translate(-166.4 -259.17)"/><path class="cls-2" d="M273.9,320c-4,0-8,.1-12,.1-9.1.1-18.3-1.2-26.8,3.6-1.3.7-3.6,2-5,.1-1.2-1.7-2.5-3.9,1-5,1.4-.4,2.9-1,2.9-2.9,3.7,1.1,12.2-2.7,13.5-6.1,1.1-2.9-1.3-3.8-3.2-4.8a85,85,0,0,1-20.5-14.1,72.28,72.28,0,0,1-15.3-20.7c-.6-1.1-2.2-2.6.3-3.7,2-.9,2.6.5,3.5,1.7,3.4,4.9,6.9,9.8,10.5,14.6a17.1,17.1,0,0,0,3.6,3.5c1.3.9,2.8,2.1,4.5,1.1,1.5-.9,1.3-2.6,1.3-4,0-7.1-2.1-13.8-4-20.5-.4-1.3-1.8-2.9.7-3.6,2.2-.6,2.8.9,3.2,2.7,1.6,8.3,3,16.7,6.6,24.5a31.35,31.35,0,0,0,3.7,6.4c2.7,3.4,5.5,2.9,7.1-1.1,2-5,2-10.4,2.4-15.7.3-4.3.1-8.7.2-13,0-1.2-.6-3,1.6-2.9,1.6.1,1.2,1.7,1.4,2.8,1.6,10.3.2,20.6,0,30.9-.1,3.2-1.2,7.4,2.8,8.7,4.2,1.4,5.4-3.1,7.1-5.6,2.2-3.3,3.9-6.9,5.8-10.4.6-1.1.9-2.8,2.7-2.2s.8,2.3.5,3.5c-3.1,11.8-10.4,20.6-20.4,27.3-1.6,1.1-3.2,2.1-5.9,3.9,7.7,0,14.1-.1,20.5.1C270.1,319.2,272.2,318.3,273.9,320Z" transform="translate(-166.4 -259.17)"/><path class="cls-3" d="M332,443.9c4.2-2.4,9.1-2.7,13.6-4.1,2-.6,2.6.6,3.3,1.9,6.1,11.2,15,18.7,27.6,21.6,1.5.3,3.4.6,3.6,2.8-5.5,20.9-10.9,41.7-16.4,62.6-.3,1.3-.2,3.5-2.4,3.1s-1.2-2.4-1-3.7c2.1-18.6,4.2-37.3,6.6-55.9.6-4.3-.7-5.5-4.8-6.3C348.9,463.3,338.2,456.6,332,443.9Z" transform="translate(-166.4 -259.17)"/><path class="cls-3" d="M245.1,438c4.2,5.4,8.4,10.8,13.9,15-11.9,2-23.9,4-35.8,5.9-9,1.4-9,1.3-8.6,10.4.6,10.5.6,10.3,10.6,13,2.1.6,6.7-.4,5.6,3.6-.8,3.1-4.2.6-6.4.2-4.6-.7-10.4-.4-13.3-3.1s-1.9-8.8-2.5-13.4c-.6-5.1-3.6-11.2-1.1-15,2.3-3.5,8.5-4.5,13.1-6.4C228.8,444.8,236.9,441.5,245.1,438Z" transform="translate(-166.4 -259.17)"/><path class="cls-3" d="M258.9,329.8c4.3.4,7.2-3.4,11.2-3.9,1.2.1,2.6-.5,4,.8-6.8,8.5-15.7,11.2-26.1,10.4-2.4-1.1-3.3-3.4-4.7-5.8,1.4-.2,2.5-.3,3.6-.5C250.9,329.2,254.8,328.2,258.9,329.8Z" transform="translate(-166.4 -259.17)"/><path class="cls-2" d="M388.8,407c-1.5-3.5-.6-7.2-.8-10.7-.1-1.7,1.1-2.1,2.5-2.4,16.4-2.9,26.1-13.1,30.4-28.8a10.72,10.72,0,0,1,1-2.2c1.6,18-8.7,30.4-27,31.6-5.6.4-6.7,2.3-6,7A25.18,25.18,0,0,1,388.8,407Z" transform="translate(-166.4 -259.17)"/><path class="cls-2" d="M178,315.2c-3.1,3-6.2,6-10.9,5.9-1.3-6.2-1.3-6.2,4.6-6.2C173.7,314.9,175.8,315.1,178,315.2Z" transform="translate(-166.4 -259.17)"/><path class="cls-4" d="M393.1,526h2.8c-.1,2.1,1,5.5-1.8,5.5C392.1,531.5,393.1,528,393.1,526Z" transform="translate(-166.4 -259.17)"/><path class="cls-5" d="M258.9,329.8c-3.9.7-7.8,1.5-11.8,1-1.2-.5-2.3-.9-3.5-1.4,5.7-4.4,10.4-5.8,26.7-7.9C267.9,326.3,262.6,327,258.9,329.8Z" transform="translate(-166.4 -259.17)"/><path class="cls-6" d="M215.8,324.9a2.7,2.7,0,0,1-2.9-2.8c-.1-2,.6-3.2,2.8-3.1,1.7.1,3,.7,3,2.6S217.6,324.5,215.8,324.9Z" transform="translate(-166.4 -259.17)"/></svg>